#!OML:ASF E:\id_vita\Project 1\Capture day 1\Session 1\Female.ASF
:FULLY-SPECIFIED
:DEGREES
524
root 34.8433 16.3726 0.114326 -154.381 -78.6375 165.636
lowerback -8.09826 1.70266 -5.19314
upperback -4.16108 2.47912 -1.76491
thorax 0.074646 1.22872 1.28309
lowerneck 17.5199 2.47628 -2.34193
upperneck -24.9941 3.80156 4.75066
head -11.1403 1.21679 1.59423
rclavicle -3.66509e-015 -1.23246e-014
rhumerus -40.3307 -12.6757 -83.4487
rradius 35.1112
rwrist 7.41957
rhand -15.8661 8.46111
rfingers 7.12502
rthumb 10.3293 -21.2652
lclavicle -3.66509e-015 -1.23246e-014
lhumerus -29.1693 22.9077 76.6939
lradius 24.6611
lwrist -23.8231
lhand -9.57513 22.154
lfingers 7.12502
lthumb 16.3928 51.4812
rfemur -23.8389 -2.51082 19.5971
rtibia 41.9665
rfoot -13.1878 -15.8445
rtoes -20.9093
lfemur -21.113 -0.327816 -24.023
ltibia 39.7326
lfoot -22.5325 4.05388
ltoes -5.08055
525
root 34.8478 16.3785 0.12927 -154.368 -78.7036 165.634
lowerback -8.11817 1.72485 -5.17396
upperback -4.16838 2.50773 -1.80274
thorax 0.0789978 1.24193 1.23608
lowerneck 17.7462 2.4139 -2.18466
upperneck -25.25 3.7457 4.68458
head -11.2744 1.17559 1.5539
rclavicle -1.98567e-014 1.55052e-014
rhumerus -40.086 -12.2947 -83.9722
rradius 35.5321
rwrist 7.33359
rhand -16.0332 8.20975
rfingers 7.12502
rthumb 10.1681 -21.5245
lclavicle -1.98567e-014 1.55052e-014
lhumerus -27.8435 22.4046 77.4355
lradius 24.5843
lwrist -24.0011
lhand -9.43037 22.2438
lfingers 7.12502
lthumb 16.5321 51.5596
rfemur -24.0575 -2.73387 19.5499
rtibia 42.3084
rfoot -13.0333 -15.4928
rtoes -21.1736
lfemur -21.0053 -0.3735 -24.0616
ltibia 39.4095
lfoot -22.4134 4.12678
ltoes -5.33078
526
root 34.8503 16.386 0.149561 -154.173 -78.7613 165.393
lowerback -8.15388 1.60129 -5.23929
upperback -4.0369 2.36235 -1.69204
thorax 0.2361 1.16874 1.37988
lowerneck 17.4116 2.52179 -2.4223
upperneck -25.2571 3.82834 4.70519
head -11.2196 1.23485 1.59202
rclavicle 1.98474e-014 3.97569e-015
rhumerus -39.4818 -11.4767 -84.5412
rradius 35.8013
rwrist 7.15752
rhand -16.8518 7.69858
rfingers 7.12502
rthumb 9.37831 -22.0728
lclavicle 1.98474e-014 3.97569e-015
lhumerus -26.3878 22.4812 78.1735
lradius 24.3538
lwrist -24.2671
lhand -9.19751 22.0003
lfingers 7.12502
lthumb 16.7563 51.2972
rfemur -24.2133 -2.98194 19.407
rtibia 42.6356
rfoot -13.072 -14.9596
rtoes -20.2483
lfemur -20.8236 -0.565986 -24.1717
ltibia 39.0904
lfoot -22.3691 4.3178
ltoes -5.25325
527
root 34.8472 16.3919 0.172303 -153.977 -78.7721 165.096
lowerback -8.24287 1.59917 -5.30021
upperback -3.9057 2.38079 -1.66475
thorax 0.416337 1.17493 1.44915
lowerneck 17.1299 2.47743 -2.30448
upperneck -25.1955 3.76134 4.58039
head -11.1325 1.21206 1.53754
rclavicle 3.84186e-014 -2.22639e-014
rhumerus -39.0083 -10.9788 -84.9964
rradius 36.0694
rwrist 7.05338
rhand -17.8562 7.14636
rfingers 7.12502
rthumb 8.40915 -22.6662
lclavicle 3.84186e-014 -2.22639e-014
lhumerus -24.9529 22.2597 78.9291
lradius 24.091
lwrist -24.7046
lhand -9.75658 20.9833
lfingers 7.12502
lthumb 16.218 50.3249
rfemur -24.3145 -3.28625 19.2301
rtibia 42.9405
rfoot -12.8335 -14.4945
rtoes -20.486
lfemur -20.5551 -0.800486 -24.3318
ltibia 38.7812
lfoot -22.3571 4.57003
ltoes -5.86738
528
root 34.8489 16.3985 0.187221 -154.108 -78.7775 165.215
lowerback -8.10429 1.59687 -5.44198
upperback -3.9805 2.37306 -1.55862
thorax 0.25129 1.17887 1.63054
lowerneck 16.94 2.40089 -2.20942
upperneck -25.0097 3.62617 4.39306
head -11.0136 1.17208 1.47163
rclavicle -1.22742e-014 1.19271e-015
rhumerus -38.8286 -10.466 -85.2752
rradius 36.3273
rwrist 7.1794
rhand -17.3583 7.25258
rfingers 7.12502
rthumb 8.88961 -22.5402
lclavicle -1.22742e-014 1.19271e-015
lhumerus -23.916 22.0418 79.6086
lradius 23.9282
lwrist -24.8373
lhand -10.6169 19.7093
lfingers 7.12502
lthumb 15.3895 49.1165
rfemur -24.5127 -3.48743 19.2008
rtibia 43.2316
rfoot -12.5499 -14.1326
rtoes -20.9661
lfemur -20.4025 -0.839807 -24.3689
ltibia 38.4845
lfoot -22.2623 4.61414
ltoes -5.38348
529
root 34.8583 16.4068 0.19816 -154.184 -78.877 165.285
lowerback -7.95182 1.56961 -5.53404
upperback -4.13338 2.32042 -1.50047
thorax 0.00489265 1.16119 1.72943
lowerneck 17.0849 2.37218 -2.18207
upperneck -24.8131 3.59006 4.37073
head -10.9661 1.16152 1.46027
rclavicle -1.59214e-014 -9.54166e-015
rhumerus -38.7919 -10.3692 -85.385
rradius 36.5233
rwrist 7.67936
rhand -15.6747 7.99211
rfingers 7.12502
rthumb 10.514 -21.7249
lclavicle -1.59214e-014 -9.54166e-015
lhumerus -23.0903 21.1657 80.3242
lradius 24.0983
lwrist -23.7126
lhand -9.85341 21.0842
lfingers 7.12502
lthumb 16.1248 50.4334
rfemur -24.7052 -3.68489 19.2273
rtibia 43.5181
rfoot -12.5869 -13.3509
rtoes -19.3116
lfemur -20.3123 -0.853136 -24.3434
ltibia 38.2064
lfoot -22.1687 4.50573
ltoes -4.65174
530
root 34.8639 16.4136 0.214804 -154.139 -78.8946 165.174
lowerback -7.83847 1.46084 -5.53558
upperback -4.16389 2.16628 -1.45653
thorax -0.0803798 1.08732 1.76052
lowerneck 16.9431 2.55671 -2.50719
upperneck -24.6101 3.82319 4.62188
head -10.8846 1.2733 1.57106
rclavicle -2.00804e-014 -1.47101e-014
rhumerus -38.532 -10.072 -85.64
rradius 36.7102
rwrist 8.03051
rhand -14.8512 8.39753
rfingers 7.12502
rthumb 11.3083 -21.2776
lclavicle -2.00804e-014 -1.47101e-014
lhumerus -22.1647 20.7907 80.8207
lradius 23.9268
lwrist -23.6934
lhand -9.31753 21.6992
lfingers 7.12502
lthumb 16.6408 51.0059
rfemur -24.8208 -3.88087 19.1165
rtibia 43.8051
rfoot -12.5531 -13.4793
rtoes -20.1867
lfemur -20.1296 -0.932621 -24.4262
ltibia 37.9438
lfoot -22.1139 4.53769
ltoes -3.78184
531
root 34.8657 16.4156 0.233319 -154.011 -78.864 164.971
lowerback -7.88878 1.46585 -5.48004
upperback -4.16571 2.17141 -1.5357
thorax -0.0492378 1.08656 1.64984
lowerneck 17.2889 2.60863 -2.48546
upperneck -24.8033 3.92733 4.69406
head -11.0303 1.30175 1.57831
rclavicle -7.98866e-015 1.43125e-014
rhumerus -38.4385 -9.86264 -86.0702
rradius 36.9353
rwrist 7.46482
rhand -14.9776 8.67037
rfingers 7.12502
rthumb 11.1864 -21.0114
lclavicle -7.98866e-015 1.43125e-014
lhumerus -21.0563 20.2711 81.262
lradius 23.6144
lwrist -23.8382
lhand -9.1541 21.7007
lfingers 7.12502
lthumb 16.7981 50.9941
rfemur -24.9201 -4.02011 18.9408
rtibia 44.0884
rfoot -12.2276 -12.7229
rtoes -20.6336
lfemur -19.9024 -1.02073 -24.5625
ltibia 37.6957
lfoot -22.109 4.69557
ltoes -4.04524
532
root 34.8641 16.4175 0.247973 -153.927 -78.9103 164.774
lowerback -7.95421 1.45851 -5.46547
upperback -4.09095 2.17091 -1.58815
thorax 0.0673948 1.08219 1.59117
lowerneck 17.3084 2.54152 -2.2729
upperneck -24.808 3.85689 4.55541
head -11.0252 1.26664 1.50209
rclavicle -1.31664e-014 1.43125e-014
rhumerus -38.193 -9.9197 -86.3003
rradius 37.1542
rwrist 7.71443
rhand -14.4539 8.69603
rfingers 7.12502
rthumb 11.6914 -20.9577
lclavicle -1.31664e-014 1.43125e-014
lhumerus -19.8596 19.9871 81.6928
lradius 23.2513
lwrist -24.2319
lhand -9.04824 21.6938
lfingers 7.12502
lthumb 16.9 50.9785
rfemur -24.9572 -4.12791 18.8302
rtibia 44.3579
rfoot -12.0097 -12.5794
rtoes -20.8943
lfemur -19.6537 -1.11966 -24.638
ltibia 37.4602
lfoot -22.2181 4.76246
ltoes -3.50252
533
root 34.8619 16.4235 0.262035 -154.099 -78.9643 164.86
lowerback -8.21521 1.47265 -5.47233
upperback -3.87743 2.22534 -1.5843
thorax 0.429276 1.10013 1.61553
lowerneck 16.9968 2.43547 -2.07235
upperneck -24.7372 3.72359 4.4225
head -10.9251 1.20707 1.44094
rclavicle -2.64632e-015 2.54444e-014
rhumerus -37.6146 -10.0606 -86.4783
rradius 37.1608
rwrist 7.84996
rhand -14.3787 8.78106
rfingers 7.12502
rthumb 11.7639 -20.8686
lclavicle -2.64632e-015 2.54444e-014
lhumerus -18.5332 19.9381 82.2302
lradius 22.8962
lwrist -24.8578
lhand -8.91742 21.4881
lfingers 7.12502
lthumb 17.0259 50.7619
rfemur -25.0297 -4.2298 18.8003
rtibia 44.6041
rfoot -12.0064 -12.304
rtoes -20.1477
lfemur -19.4633 -1.17434 -24.6498
ltibia 37.232
lfoot -22.3278 4.67306
ltoes -3.5451
534
root 34.8642 16.4322 0.279223 -154.318 -78.9923 165.04
lowerback -7.48718 1.45697 -5.66459
upperback -4.38938 2.12792 -1.37665
thorax -0.515232 1.08364 1.89664
lowerneck 17.2388 2.46954 -2.31877
upperneck -24.3923 3.71592 4.46684
head -10.8496 1.2316 1.49316
rclavicle 3.6769e-014 -2.34566e-014
rhumerus -38.1207 -9.7528 -86.2857
rradius 37.1669
rwrist 7.88679
rhand -14.7379 9.37908
rfingers 7.12502
rthumb 11.4175 -20.2901
lclavicle 3.6769e-014 -2.34566e-014
lhumerus -18.5548 19.8615 82.587
lradius 22.7887
lwrist -25.3059
lhand -8.66972 21.5255
lfingers 7.12502
lthumb 17.2643 50.7786
rfemur -25.1369 -4.38499 18.7692
rtibia 44.8189
rfoot -11.8548 -11.987
rtoes -19.8823
lfemur -19.3432 -1.2296 -24.6766
ltibia 37.0102
lfoot -22.4049 4.62297
ltoes -2.75702
535
root 34.8654 16.4396 0.296018 -154.183 -79.0076 164.857
lowerback -7.71602 1.39759 -5.66281
upperback -4.21509 2.07838 -1.38582
thorax -0.203307 1.04994 1.89352
lowerneck 17.2673 2.53744 -2.38064
upperneck -24.6805 3.81979 4.56156
head -10.9702 1.26353 1.52657
rclavicle 4.85159e-015 -3.02153e-014
rhumerus -37.5355 -9.67216 -86.5442
rradius 37.0953
rwrist 7.94881
rhand -14.974 9.71719
rfingers 7.12502
rthumb 11.1898 -19.9644
lclavicle 4.85159e-015 -3.02153e-014
lhumerus -17.3552 19.5238 83.0967
lradius 22.6262
lwrist -25.4839
lhand -8.33955 21.9626
lfingers 7.12502
lthumb 17.5821 51.1876
rfemur -25.1867 -4.56493 18.6459
rtibia 45.0012
rfoot -11.6413 -11.7383
rtoes -20.1176
lfemur -19.1986 -1.33839 -24.7844
ltibia 36.7927
lfoot -22.4498 4.67608
ltoes -2.20918
536
root 34.8643 16.4449 0.309158 -154.04 -79.0117 164.716
lowerback -7.71288 1.39467 -5.69915
upperback -4.2292 2.07479 -1.42483
thorax -0.219585 1.04832 1.87288
lowerneck 17.131 2.61881 -2.51401
upperneck -24.666 3.96982 4.84246
head -10.9543 1.30946 1.63042
rclavicle -4.56584e-015 -6.75868e-015
rhumerus -37.3493 -9.68389 -86.7687
rradius 37.1971
rwrist 8.01519
rhand -14.6792 9.149
rfingers 7.12502
rthumb 11.4742 -20.517
lclavicle -4.56584e-015 -6.75868e-015
lhumerus -16.4441 19.0947 83.4898
lradius 22.5856
lwrist -25.8624
lhand -8.4241 21.9511
lfingers 7.12502
lthumb 17.5007 51.1833
rfemur -25.3009 -4.69064 18.5447
rtibia 45.1568
rfoot -11.3955 -11.5146
rtoes -20.4959
lfemur -19.0742 -1.43947 -24.8667
ltibia 36.5766
lfoot -22.4211 4.71318
ltoes -1.67348
537
root 34.865 16.4514 0.323197 -154.258 -79.0872 164.959
lowerback -7.66404 1.32354 -5.61068
upperback -4.36195 1.96003 -1.39519
thorax -0.373619 0.993916 1.84263
lowerneck 17.3179 2.75594 -2.73309
upperneck -24.6325 4.15439 5.0352
head -10.9966 1.3897 1.70853
rclavicle 2.9271e-014 -1.55052e-014
rhumerus -37.4305 -9.498 -86.9825
rradius 37.2584
rwrist 8.16029
rhand -14.8767 9.25094
rfingers 7.12502
rthumb 11.2836 -20.4256
lclavicle 2.9271e-014 -1.55052e-014
lhumerus -15.9716 19.0295 83.6666
lradius 22.5803
lwrist -26.4472
lhand -8.67906 21.6238
lfingers 7.12502
lthumb 17.2554 50.8777
rfemur -25.4637 -4.82367 18.5591
rtibia 45.2962
rfoot -11.4081 -11.6312
rtoes -21.6244
lfemur -18.9748 -1.65279 -24.8235
ltibia 36.359
lfoot -22.3883 4.77717
ltoes -1.82216
538
root 34.8668 16.4582 0.339632 -154.334 -79.2072 164.996
lowerback -7.75687 1.28065 -5.45809
upperback -4.39313 1.89603 -1.44221
thorax -0.342267 0.95723 1.70691
lowerneck 17.6472 2.68458 -2.51055
upperneck -24.6709 4.07127 4.84554
head -11.0619 1.35177 1.61174
rclavicle -1.47535e-014 1.59028e-015
rhumerus -37.4012 -9.54333 -87.182
rradius 37.1887
rwrist 8.3636
rhand -15.6558 10.2281
rfingers 7.12502
rthumb 10.5322 -19.488
lclavicle -1.47535e-014 1.59028e-015
lhumerus -15.4299 18.6126 83.845
lradius 22.4731
lwrist -26.7044
lhand -7.3663 22.7836
lfingers 7.12502
lthumb 18.5185 51.9222
rfemur -25.5383 -5.0067 18.5383
rtibia 45.4303
rfoot -11.6307 -12.1174
rtoes -23.9535
lfemur -18.8388 -1.89905 -24.8123
ltibia 36.148
lfoot -22.3364 4.86381
ltoes -1.70949
